<svg width="1000" height="500" viewBox="0 0 1000 500" fill="none" xmlns="http://www.w3.org/2000/svg">
<path d="M146.172 312V185.62H170.736V312H146.172ZM248.368 230.832V312H223.804V185.62H243.384L308.71 268.924V185.798H333.274V312H312.804L248.368 230.832ZM420.617 185.62H445.537L491.995 312H466.719L454.971 280.494H410.827L399.257 312H373.981L420.617 185.62ZM450.521 263.228L433.077 211.074L414.921 263.228H450.521ZM580.2 312.89C572.012 312.89 564.239 311.229 556.882 307.906C549.643 304.583 543.235 300.015 537.658 294.2C532.199 288.267 527.927 281.384 524.842 273.552C521.757 265.72 520.214 257.235 520.214 248.098C520.214 239.435 521.757 231.307 524.842 223.712C527.927 215.999 532.259 209.235 537.836 203.42C543.413 197.605 549.94 193.037 557.416 189.714C564.892 186.391 573.021 184.73 581.802 184.73C593.669 184.73 603.815 187.281 612.24 192.384C620.784 197.368 627.192 204.013 631.464 212.32L613.13 225.848C609.926 219.559 605.417 214.753 599.602 211.43C593.906 208.107 587.676 206.446 580.912 206.446C575.572 206.446 570.707 207.573 566.316 209.828C561.925 212.083 558.128 215.168 554.924 219.084C551.72 223 549.228 227.509 547.448 232.612C545.787 237.715 544.956 243.114 544.956 248.81C544.956 254.862 545.846 260.439 547.626 265.542C549.525 270.645 552.135 275.095 555.458 278.892C558.899 282.689 562.875 285.715 567.384 287.97C571.893 290.106 576.877 291.174 582.336 291.174C588.744 291.174 594.855 289.513 600.67 286.19C606.603 282.867 612.121 278.002 617.224 271.594V295.802C606.663 307.194 594.321 312.89 580.2 312.89ZM615.444 265.008H589.99V247.03H635.736V312H615.444V265.008ZM683.37 312V185.62H739.262C745.077 185.62 750.417 186.807 755.282 189.18C760.266 191.553 764.538 194.757 768.098 198.792C771.777 202.827 774.566 207.336 776.464 212.32C778.482 217.304 779.49 222.407 779.49 227.628C779.49 232.968 778.541 238.13 776.642 243.114C774.862 247.979 772.252 252.251 768.81 255.93C765.369 259.609 761.334 262.457 756.706 264.474L785.542 312H758.486L732.498 269.636H707.934V312H683.37ZM707.934 248.098H738.728C741.814 248.098 744.543 247.208 746.916 245.428C749.29 243.529 751.188 241.037 752.612 237.952C754.036 234.867 754.748 231.425 754.748 227.628C754.748 223.593 753.918 220.093 752.256 217.126C750.595 214.041 748.459 211.608 745.848 209.828C743.356 208.048 740.627 207.158 737.66 207.158H707.934V248.098ZM828.447 312V185.62H853.011V312H828.447Z" fill="black"/>
</svg>
